<?xml version="1.0" encoding="UTF-8" standalone="no"?>
<!DOCTYPE svg PUBLIC "-//W3C//DTD SVG 1.1//EN" "http://www.w3.org/Graphics/SVG/1.1/DTD/svg11.dtd">
<svg width="100%" height="100%" viewBox="0 0 47 44" version="1.1" xmlns="http://www.w3.org/2000/svg" xmlns:xlink="http://www.w3.org/1999/xlink" xml:space="preserve" xmlns:serif="http://www.serif.com/" style="fill-rule:evenodd;clip-rule:evenodd;stroke-linejoin:round;stroke-miterlimit:2;">
    <g transform="matrix(1,0,0,1,-77.081466,-8.464325)">
        <g transform="matrix(1,0,0,1,70.28821,0)">
            <g transform="matrix(3.765624,0,0,4.261817,-348.206768,-24.961584)">
                <path d="M94.557,10.968C94.575,10.354 94.98,9.837 95.535,9.651C95.797,9.299 96.216,9.072 96.688,9.072C96.844,9.072 96.995,9.097 97.134,9.143C97.213,9.13 97.296,9.122 97.379,9.122C97.434,9.122 97.489,9.125 97.542,9.132C98.168,8.346 99.134,7.843 100.217,7.843L102.664,7.843C103.842,7.843 104.805,8.783 104.835,9.96C104.85,10.576 104.862,11.192 104.869,11.807C105.396,12.077 105.858,12.375 106.282,12.69L106.291,12.697L106.47,12.889L106.575,13.123L106.599,13.378L106.539,13.634L106.398,13.856L106.199,14.017L105.959,14.106L105.696,14.113L105.687,14.111C105.421,14.07 105.149,14.029 104.875,13.999C104.869,14.866 104.852,15.733 104.821,16.6C104.793,17.353 104.174,17.949 103.421,17.949L100.878,17.949C100.016,17.949 98.809,17.451 98.234,16.87C97.65,16.278 96.792,14.993 96.835,14.4C96.631,14.358 96.444,14.273 96.282,14.155C96.242,14.158 96.201,14.16 96.159,14.16C95.417,14.16 94.806,13.596 94.73,12.874C94.449,12.612 94.274,12.239 94.274,11.824C94.274,11.504 94.379,11.208 94.557,10.968ZM102.109,9.871L102.837,10.997C102.853,11.023 102.889,11.035 102.922,11.026L103.326,10.917C103.347,10.911 103.363,10.898 103.371,10.881C103.379,10.864 103.378,10.844 103.367,10.828L102.14,8.928C102.133,8.917 102.119,8.91 102.104,8.91C102.089,8.91 102.075,8.917 102.068,8.928L100.84,10.828C100.83,10.844 100.829,10.864 100.837,10.881C100.845,10.898 100.861,10.911 100.882,10.917L101.286,11.026C101.319,11.035 101.354,11.023 101.371,10.997L102.099,9.871C102.1,9.869 102.102,9.868 102.104,9.868C102.106,9.868 102.108,9.869 102.109,9.871ZM99.585,12.896L100.758,13.413C100.853,13.472 100.963,13.504 101.075,13.504L101.799,13.5C101.84,13.874 101.835,14.248 101.783,14.622C101.765,14.745 101.846,14.862 101.968,14.887C102.177,14.928 102.388,14.929 102.601,14.894C102.665,14.882 102.721,14.844 102.757,14.789C102.792,14.734 102.803,14.666 102.787,14.603C102.698,14.235 102.687,13.867 102.757,13.5C103.702,13.196 104.786,13.339 105.783,13.494C105.859,13.505 105.933,13.463 105.963,13.392C105.993,13.321 105.971,13.239 105.91,13.192C105.333,12.764 104.681,12.369 103.879,12.038L103.84,12.025C102.684,11.727 101.348,11.72 100.121,12.2C99.952,12.265 99.766,12.282 99.585,12.248C99.585,12.248 98.672,12.029 98.431,11.995C98.333,11.981 98.158,12.008 98.138,12.047L98.022,12.283C97.99,12.348 97.992,12.424 98.025,12.49C98.059,12.556 98.122,12.602 98.194,12.616L99.453,12.853C99.498,12.862 99.543,12.876 99.585,12.896Z" style="fill:rgb(19,24,27);"/>
            </g>
        </g>
    </g>
</svg>
