<?xml version="1.0" encoding="UTF-8" standalone="no"?>
<!DOCTYPE svg PUBLIC "-//W3C//DTD SVG 1.1//EN" "http://www.w3.org/Graphics/SVG/1.1/DTD/svg11.dtd">
<svg width="100%" height="100%" viewBox="0 0 49 42" version="1.1" xmlns="http://www.w3.org/2000/svg" xmlns:xlink="http://www.w3.org/1999/xlink" xml:space="preserve" xmlns:serif="http://www.serif.com/" style="fill-rule:evenodd;clip-rule:evenodd;stroke-linejoin:round;stroke-miterlimit:2;">
    <g transform="matrix(1,0,0,1,-5.96413,-79.04954)">
        <g transform="matrix(1,0,0,1,0,70.119666)">
            <g transform="matrix(3.335493,0,0,3.474008,-71.578046,-130.977021)">
                <circle cx="30.983" cy="46.092" r="0.239" style="fill:url(#_Linear1);"/>
                <path d="M23.563,44.771C23.58,44.047 24.173,43.463 24.902,43.463L24.938,43.464C25.177,43.242 25.497,43.106 25.849,43.106C26.035,43.106 26.212,43.144 26.373,43.213C26.597,41.552 28.02,40.272 29.742,40.272L32.162,40.272C32.43,40.272 32.693,40.325 32.936,40.424L32.968,40.42L33.119,40.43L33.265,40.472L33.4,40.546L33.408,40.551C33.499,40.618 33.587,40.691 33.668,40.772C33.734,40.838 33.795,40.909 33.851,40.982L33.947,41.153L33.991,41.339L33.989,41.396C34.133,41.68 34.21,41.996 34.21,42.32L34.209,42.487L34.279,42.525L36.934,44.058C37.619,44.453 37.861,45.323 37.479,46.015L37.173,46.569C36.814,47.22 36.022,47.494 35.338,47.205L35.129,47.117L35.167,47.202L35.246,47.454L35.261,47.714L35.211,47.969L35.098,48.208L34.93,48.411L34.72,48.564L34.479,48.661L34.218,48.696L34.169,48.696L34.015,50.966L34.017,50.924L33.994,51.157L33.927,51.378L33.817,51.583L33.669,51.763L33.489,51.911L33.284,52.02L33.063,52.088L32.83,52.111L31.571,52.111C30.052,52.111 28.596,51.508 27.522,50.434L27.063,49.975C26.775,49.686 26.565,49.334 26.449,48.951C26.268,49.042 26.064,49.093 25.849,49.093C25.497,49.093 25.177,48.957 24.939,48.735L24.902,48.735C24.173,48.735 23.58,48.152 23.563,47.427C23.366,47.194 23.248,46.893 23.248,46.564C23.248,46.4 23.277,46.244 23.331,46.1C23.277,45.955 23.248,45.798 23.248,45.635C23.248,45.306 23.366,45.005 23.563,44.771ZM32.027,46.092C31.45,45.516 30.516,45.516 29.939,46.092C30.516,46.669 31.45,46.669 32.027,46.092ZM27.183,45.427L27.001,45.427C26.613,45.427 26.299,45.741 26.299,46.128L26.299,46.681C26.299,47.068 26.613,47.382 27.001,47.382L27.823,47.382C27.857,47.382 27.885,47.355 27.885,47.321L27.885,46.128C27.885,45.741 27.57,45.427 27.183,45.427ZM32.338,42.309C32.321,42.344 32.336,42.387 32.371,42.405L32.744,42.588C32.759,42.595 32.775,42.596 32.791,42.591C32.806,42.586 32.818,42.575 32.825,42.56L33.362,41.445L33.363,41.443C33.375,41.416 33.371,41.384 33.353,41.36C33.314,41.309 33.272,41.26 33.226,41.214C33.169,41.157 33.107,41.105 33.042,41.058C33.023,41.045 32.999,41.041 32.976,41.047C32.953,41.053 32.935,41.068 32.925,41.09L32.338,42.309ZM35.581,46.629C35.971,46.794 36.422,46.637 36.626,46.267L36.932,45.713C37.149,45.319 37.011,44.824 36.621,44.599L33.967,43.066C33.849,42.998 33.718,42.963 33.585,42.961C33.512,42.959 33.439,42.968 33.368,42.987C33.23,43.024 33.105,43.098 33.007,43.199C32.961,43.246 32.922,43.298 32.889,43.355L32.591,43.87C32.494,44.039 32.315,44.142 32.121,44.142L30.982,44.142C30.69,44.142 30.454,44.379 30.454,44.671L30.454,44.728C30.454,44.822 30.491,44.913 30.558,44.979C30.624,45.046 30.715,45.083 30.809,45.083L31.828,45.083C31.889,45.083 31.949,45.096 32.006,45.119L35.581,46.629Z" style="fill:url(#_Linear2);"/>
            </g>
        </g>
    </g>
    <defs>
        <linearGradient id="_Linear1" x1="0" y1="0" x2="1" y2="0" gradientUnits="userSpaceOnUse" gradientTransform="matrix(13.705483,-10.116908,10.537039,13.159021,23.247592,52.11081)"><stop offset="0" style="stop-color:rgb(253,137,115);stop-opacity:1"/><stop offset="1" style="stop-color:rgb(255,191,101);stop-opacity:1"/></linearGradient>
        <linearGradient id="_Linear2" x1="0" y1="0" x2="1" y2="0" gradientUnits="userSpaceOnUse" gradientTransform="matrix(13.705483,-10.116908,10.537039,13.159021,23.247592,52.11081)"><stop offset="0" style="stop-color:rgb(253,137,115);stop-opacity:1"/><stop offset="1" style="stop-color:rgb(255,191,101);stop-opacity:1"/></linearGradient>
    </defs>
</svg>
