<?xml version="1.0" encoding="UTF-8" standalone="no"?>
<!DOCTYPE svg PUBLIC "-//W3C//DTD SVG 1.1//EN" "http://www.w3.org/Graphics/SVG/1.1/DTD/svg11.dtd">
<svg width="100%" height="100%" viewBox="0 0 134 127" version="1.1" xmlns="http://www.w3.org/2000/svg" xmlns:xlink="http://www.w3.org/1999/xlink" xml:space="preserve" xmlns:serif="http://www.serif.com/" style="fill-rule:evenodd;clip-rule:evenodd;stroke-linejoin:round;stroke-miterlimit:2;">
    <g transform="matrix(1,0,0,1,-230.113297,-230.531019)">
        <g transform="matrix(1,0,0,1,206.767997,205.394839)">
            <g transform="matrix(1.887286,0,0,2.159841,-73.875272,-113.627872)">
                <path d="M109.193,114.438C108.949,114.188 108.756,113.905 108.62,113.598C106.569,108.956 89.74,70.864 88.423,67.885C88.402,67.837 88.405,67.784 88.431,67.738C88.456,67.692 88.503,67.658 88.558,67.643C90.036,67.248 91.487,66.822 92.882,66.361C95.905,65.344 99.3,66.659 100.466,69.3C105.678,81.064 118.295,109.622 120.052,113.598C120.187,113.905 120.381,114.188 120.625,114.438C121.068,114.891 121.794,115.632 122.12,115.966C122.151,115.997 122.157,116.04 122.138,116.077C122.118,116.114 122.076,116.138 122.029,116.138C120.705,116.138 114.659,116.138 112.056,116.138C111.295,116.138 110.573,115.847 110.079,115.342C109.774,115.031 109.44,114.69 109.193,114.438Z" style="fill:url(#_Linear1);"/>
            </g>
            <g transform="matrix(1.887286,0,0,2.159841,-73.875272,-113.627872)">
                <path d="M81.465,69.293C82.946,68.99 84.446,68.662 85.935,68.305C86.324,68.212 86.731,68.391 86.877,68.72C89.098,73.748 105.024,109.794 106.739,113.676C106.838,113.901 106.979,114.109 107.157,114.293C107.588,114.738 108.421,115.599 108.775,115.966C108.806,115.997 108.812,116.041 108.793,116.077C108.773,116.114 108.731,116.138 108.684,116.138C107.339,116.138 101.083,116.138 98.565,116.138C97.896,116.138 97.261,115.88 96.83,115.434C96.409,114.999 95.9,114.473 95.636,114.2C95.518,114.077 95.424,113.939 95.358,113.79C94.583,112.036 89.513,100.561 88.292,97.797C88.133,97.437 87.736,97.199 87.294,97.199C84.71,97.199 76.095,97.199 74.439,97.199C74.275,97.199 74.13,97.294 74.084,97.431C73.572,98.941 70.715,107.362 70.271,108.672C70.238,108.767 70.299,108.867 70.407,108.898C71.678,109.252 78.818,111.244 81.621,112.026C82.351,112.23 83.139,112.206 83.852,111.959C84.003,111.907 84.148,111.856 84.269,111.814C84.325,111.795 84.388,111.807 84.429,111.844C84.471,111.881 84.483,111.937 84.459,111.985C83.759,113.424 80.605,119.904 79.788,121.582C79.665,121.836 79.43,122.037 79.137,122.14C78.881,122.23 78.562,122.342 78.293,122.437C77.937,122.562 77.542,122.575 77.176,122.472C74.138,121.617 59.774,117.576 56.555,116.671C56.138,116.553 55.69,116.556 55.276,116.678C54.902,116.788 54.446,116.922 54.15,117.009C54.095,117.025 54.034,117.012 53.995,116.975C53.955,116.937 53.944,116.883 53.967,116.837C54.629,115.477 57.655,109.26 58.575,107.369C58.744,107.022 59.078,106.756 59.489,106.641C59.801,106.553 60.167,106.451 60.449,106.372C60.742,106.289 61.058,106.289 61.352,106.371C62.523,106.698 65.621,107.562 66.444,107.792C66.497,107.807 66.556,107.802 66.605,107.779C66.655,107.756 66.692,107.717 66.708,107.67C67.131,106.422 69.646,99.017 70.168,97.479C70.191,97.413 70.176,97.342 70.129,97.287C70.082,97.232 70.008,97.199 69.929,97.199C67.413,97.199 51.513,97.199 51.513,97.199C51.513,97.199 68.909,93.978 71.245,93.545C71.404,93.516 71.53,93.409 71.567,93.271C71.591,93.182 71.614,93.094 71.637,93.005C71.637,93.005 75.984,75.858 76.804,72.621C76.891,72.279 76.86,71.923 76.716,71.596C76.551,71.223 76.336,70.737 76.223,70.481C76.204,70.438 76.208,70.39 76.233,70.349C76.259,70.308 76.304,70.279 76.356,70.27C76.717,70.205 77.082,70.139 77.451,70.071C78.759,69.83 80.104,69.572 81.465,69.293ZM79.504,77.907C79.486,77.865 79.437,77.838 79.386,77.842C79.334,77.845 79.291,77.878 79.28,77.922C78.751,80.011 75.896,91.283 75.407,93.216C75.389,93.284 75.409,93.356 75.459,93.411C75.509,93.465 75.585,93.497 75.666,93.497C77.245,93.497 84.013,93.497 85.519,93.497C85.711,93.497 85.897,93.556 86.045,93.664C86.297,93.849 86.667,94.12 86.667,94.12C86.667,94.12 80.518,80.201 79.504,77.907Z" style="fill:url(#_Linear2);"/>
            </g>
        </g>
    </g>
    <defs>
        <linearGradient id="_Linear1" x1="0" y1="0" x2="1" y2="0" gradientUnits="userSpaceOnUse" gradientTransform="matrix(64.195231,-45.390977,51.94617,56.094304,51.513422,119.496427)"><stop offset="0" style="stop-color:rgb(253,137,115);stop-opacity:1"/><stop offset="1" style="stop-color:rgb(255,191,101);stop-opacity:1"/></linearGradient>
        <linearGradient id="_Linear2" x1="0" y1="0" x2="1" y2="0" gradientUnits="userSpaceOnUse" gradientTransform="matrix(64.195231,-45.390977,51.94617,56.094304,51.513422,119.496427)"><stop offset="0" style="stop-color:rgb(253,137,115);stop-opacity:1"/><stop offset="1" style="stop-color:rgb(255,191,101);stop-opacity:1"/></linearGradient>
    </defs>
</svg>
